# Blender 4.0.2
# www.blender.org
mtllib notepad.mtl
o BezierCurve
v -0.003278 -0.007353 -0.000531
v 0.055202 0.119121 -0.000490
v 0.138608 0.201694 -0.000463
v 0.245364 0.246640 -0.000448
v 0.373892 0.260228 -0.000444
v 0.522616 0.248730 -0.000447
v 0.689959 0.218418 -0.000457
v 0.874344 0.175564 -0.000471
v 1.074196 0.126438 -0.000488
v 1.287936 0.077311 -0.000504
v 1.513988 0.034457 -0.000518
v 1.750776 0.004145 -0.000528
v 1.996722 -0.007353 -0.000531
v 0.003809 -0.007353 -3.019552
v 0.062289 0.119121 -3.019511
v 0.145695 0.201694 -3.019484
v 0.252450 0.246640 -3.019469
v 0.380979 0.260228 -3.019465
v 0.529703 0.248730 -3.019469
v 0.697046 0.218418 -3.019479
v 0.881431 0.175564 -3.019493
v 1.081282 0.126438 -3.019509
v 1.295023 0.077311 -3.019525
v 1.521075 0.034457 -3.019539
v 1.757862 0.004145 -3.019549
v 2.003808 -0.007353 -3.019552
v 0.000292 -0.056092 -0.000523
v 0.058772 0.070381 -0.000482
v 0.142179 0.152955 -0.000455
v 0.248934 0.197900 -0.000440
v 0.377462 0.211488 -0.000435
v 0.526186 0.199990 -0.000439
v 0.693530 0.169678 -0.000449
v 0.877915 0.126824 -0.000463
v 1.077766 0.077698 -0.000479
v 1.291506 0.028572 -0.000495
v 1.517559 -0.014283 -0.000509
v 1.754346 -0.044595 -0.000519
v 2.000292 -0.056092 -0.000523
v 0.007379 -0.056092 -3.019544
v 0.065859 0.070381 -3.019503
v 0.149266 0.152955 -3.019476
v 0.256021 0.197900 -3.019461
v 0.384549 0.211488 -3.019457
v 0.533273 0.199990 -3.019460
v 0.700617 0.169678 -3.019470
v 0.885002 0.126824 -3.019484
v 1.084853 0.077698 -3.019500
v 1.298593 0.028572 -3.019516
v 1.524646 -0.014283 -3.019531
v 1.761433 -0.044595 -3.019541
v 2.007379 -0.056092 -3.019544
v -2.004870 -0.045122 0.003606
v -2.004870 -0.001108 0.003606
v -1.996366 -0.045122 -3.008404
v -1.996366 -0.001108 -3.008404
v -0.004870 -0.045122 0.003606
v -0.004870 -0.001108 0.003606
v 0.003634 -0.045122 -3.008404
v 0.003634 -0.001108 -3.008404
vn -0.1270 -0.9919 -0.0003
vn 0.9077 -0.4197 0.0021
vn -0.2387 -0.9711 -0.0006
vn -0.0771 -0.9970 -0.0002
vn -0.0467 -0.9989 -0.0001
vn 0.7035 -0.7106 0.0017
vn -0.2240 -0.9746 -0.0005
vn -0.1782 -0.9840 -0.0004
vn 0.3880 -0.9216 0.0009
vn -0.1863 -0.9825 -0.0004
vn -0.2264 -0.9740 -0.0005
vn 0.1051 -0.9945 0.0002
vn 0.1270 0.9919 0.0003
vn -0.9077 0.4197 -0.0021
vn 0.2387 0.9711 0.0006
vn 0.0771 0.9970 0.0002
vn 0.0467 0.9989 0.0001
vn -0.7035 0.7106 -0.0017
vn 0.2240 0.9746 0.0005
vn 0.1782 0.9840 0.0004
vn -0.3880 0.9216 -0.0009
vn 0.1863 0.9825 0.0004
vn 0.2264 0.9740 0.0005
vn -0.1051 0.9945 -0.0002
vn -0.0000 -0.0002 -1.0000
vn 0.0001 0.0002 1.0000
vn -0.0009 0.0001 1.0000
vn 0.9973 0.0731 0.0023
vn -0.0001 -0.0002 -1.0000
vn -0.0005 0.0001 1.0000
vn -0.0002 0.0002 1.0000
vn 0.0009 -0.0001 -1.0000
vn -0.0001 0.0002 1.0000
vn -0.0000 0.0002 1.0000
vn 0.0005 -0.0001 -1.0000
vn 0.0002 -0.0002 -1.0000
vn -0.9973 -0.0731 -0.0023
vn 0.0001 -0.0002 -1.0000
vn -1.0000 -0.0000 -0.0028
vn -0.0000 -0.0000 -1.0000
vn 1.0000 -0.0000 0.0028
vn -0.0000 -0.0000 1.0000
vn -0.0000 -1.0000 -0.0000
vn -0.0000 1.0000 -0.0000
vt 0.000000 0.000000
vt 0.375000 0.000000
vt 0.625000 0.000000
vt 0.625000 0.250000
vt 0.375000 0.250000
vt 0.625000 0.500000
vt 0.375000 0.500000
vt 0.625000 0.750000
vt 0.375000 0.750000
vt 0.625000 1.000000
vt 0.375000 1.000000
vt 0.125000 0.500000
vt 0.125000 0.750000
vt 0.875000 0.500000
vt 0.875000 0.750000
s 0
f 11/1/1 24/1/1 25/1/1 12/1/1
f 1/1/2 14/1/2 15/1/2 2/1/2
f 8/1/3 21/1/3 22/1/3 9/1/3
f 5/1/4 18/1/4 19/1/4 6/1/4
f 12/1/5 25/1/5 26/1/5 13/1/5
f 2/1/6 15/1/6 16/1/6 3/1/6
f 9/1/7 22/1/7 23/1/7 10/1/7
f 6/1/8 19/1/8 20/1/8 7/1/8
f 3/1/9 16/1/9 17/1/9 4/1/9
f 10/1/10 23/1/10 24/1/10 11/1/10
f 7/1/11 20/1/11 21/1/11 8/1/11
f 4/1/12 17/1/12 18/1/12 5/1/12
f 37/1/13 38/1/13 51/1/13 50/1/13
f 27/1/14 28/1/14 41/1/14 40/1/14
f 34/1/15 35/1/15 48/1/15 47/1/15
f 31/1/16 32/1/16 45/1/16 44/1/16
f 38/1/17 39/1/17 52/1/17 51/1/17
f 28/1/18 29/1/18 42/1/18 41/1/18
f 35/1/19 36/1/19 49/1/19 48/1/19
f 32/1/20 33/1/20 46/1/20 45/1/20
f 29/1/21 30/1/21 43/1/21 42/1/21
f 36/1/22 37/1/22 50/1/22 49/1/22
f 33/1/23 34/1/23 47/1/23 46/1/23
f 30/1/24 31/1/24 44/1/24 43/1/24
f 12/1/25 13/1/25 39/1/25 38/1/25
f 5/1/25 6/1/25 32/1/25 31/1/25
f 22/1/26 21/1/26 47/1/26 48/1/26
f 15/1/27 14/1/27 40/1/27 41/1/27
f 14/1/28 1/1/28 27/1/28 40/1/28
f 6/1/29 7/1/29 33/1/29 32/1/29
f 23/1/26 22/1/26 48/1/26 49/1/26
f 16/1/30 15/1/30 41/1/30 42/1/30
f 7/1/29 8/1/29 34/1/29 33/1/29
f 24/1/26 23/1/26 49/1/26 50/1/26
f 17/1/31 16/1/31 42/1/31 43/1/31
f 8/1/29 9/1/29 35/1/29 34/1/29
f 25/1/26 24/1/26 50/1/26 51/1/26
f 1/1/32 2/1/32 28/1/32 27/1/32
f 18/1/33 17/1/33 43/1/33 44/1/33
f 9/1/29 10/1/29 36/1/29 35/1/29
f 26/1/34 25/1/34 51/1/34 52/1/34
f 2/1/35 3/1/35 29/1/35 28/1/35
f 19/1/34 18/1/34 44/1/34 45/1/34
f 10/1/29 11/1/29 37/1/29 36/1/29
f 3/1/36 4/1/36 30/1/36 29/1/36
f 20/1/26 19/1/26 45/1/26 46/1/26
f 13/1/37 26/1/37 52/1/37 39/1/37
f 11/1/29 12/1/29 38/1/29 37/1/29
f 4/1/38 5/1/38 31/1/38 30/1/38
f 21/1/26 20/1/26 46/1/26 47/1/26
f 53/2/39 54/3/39 56/4/39 55/5/39
f 55/5/40 56/4/40 60/6/40 59/7/40
f 59/7/41 60/6/41 58/8/41 57/9/41
f 57/9/42 58/8/42 54/10/42 53/11/42
f 55/12/43 59/7/43 57/9/43 53/13/43
f 60/6/44 56/14/44 54/15/44 58/8/44
